HIERARCHY
ROOT Hips
{
	OFFSET	0.00	0.00	0.00
	CHANNELS 6 Xposition Yposition Zposition Zrotation Xrotation Yrotation
	JOINT LeftUpLeg
	{
		OFFSET	 0.126116	-0.065224	 0.014019
		CHANNELS 3 Zrotation Xrotation Yrotation
		JOINT LeftLeg
		{
			OFFSET	 0.000000	 0.569914	 0.000000
			CHANNELS 3 Zrotation Xrotation Yrotation
			JOINT LeftFoot
			{
				OFFSET	 0.000000	 0.544423	 0.000000
				CHANNELS 3 Zrotation Xrotation Yrotation
				JOINT LeftToeBase
				{
					OFFSET	 0.000000	 0.207117	 0.000000
					CHANNELS 3 Zrotation Xrotation Yrotation
					End Site
					{
						OFFSET	 0.000000	 0.207117	 0.000000
					}
				}
			}
		}
	}
	JOINT RightUpLeg
	{
		OFFSET	-0.124023	-0.065224	 0.008373
		CHANNELS 3 Zrotation Xrotation Yrotation
		JOINT RightLeg
		{
			OFFSET	 0.000000	 0.570047	 0.000000
			CHANNELS 3 Zrotation Xrotation Yrotation
			JOINT RightFoot
			{
				OFFSET	 0.000000	 0.544354	 0.000000
				CHANNELS 3 Zrotation Xrotation Yrotation
				JOINT RightToeBase
				{
					OFFSET	 0.000000	 0.207540	 0.000000
					CHANNELS 3 Zrotation Xrotation Yrotation
					End Site
					{
						OFFSET	 0.000000	 0.207540	 0.000000
					}
				}
			}
		}
	}
	JOINT Spine
	{
		OFFSET	 0.000184	 0.117403	 0.007763
		CHANNELS 3 Zrotation Xrotation Yrotation
		JOINT Spine1
		{
			OFFSET	 0.000000	 0.137269	 0.000000
			CHANNELS 3 Zrotation Xrotation Yrotation
			JOINT Spine2
			{
				OFFSET	 0.000000	 0.156879	 0.000000
				CHANNELS 3 Zrotation Xrotation Yrotation
				JOINT LeftShoulder
				{
					OFFSET	 0.080501	 0.160143	 0.002496
					CHANNELS 3 Zrotation Xrotation Yrotation
					JOINT LeftArm
					{
						OFFSET	 0.000000	 0.164363	 0.000000
						CHANNELS 3 Zrotation Xrotation Yrotation
						JOINT LeftForeArm
						{
							OFFSET	 0.000000	 0.364576	 0.000000
							CHANNELS 3 Zrotation Xrotation Yrotation
							JOINT LeftHand
							{
								OFFSET	 0.000000	 0.360812	 0.000000
								CHANNELS 3 Zrotation Xrotation Yrotation
								JOINT LeftHandIndex1
								{
									OFFSET	 0.000000	 0.086006	 0.000000
									CHANNELS 3 Zrotation Xrotation Yrotation
									JOINT LeftHandIndex2
									{
										OFFSET	 0.000000	 0.047237	 0.000000
										CHANNELS 3 Zrotation Xrotation Yrotation
										JOINT LeftHandIndex3
										{
											OFFSET	-0.004284	 0.038165	 0.000551
											CHANNELS 3 Zrotation Xrotation Yrotation
											End Site
											{
												OFFSET	-0.004284	 0.038165	 0.000551
											}
										}
									}
								}
							}
						}
					}
				}
				JOINT Neck
				{
					OFFSET	 0.000000	 0.176489	 0.000000
					CHANNELS 3 Zrotation Xrotation Yrotation
					JOINT Head
					{
						OFFSET	 0.000000	 0.077941	 0.001747
						CHANNELS 3 Zrotation Xrotation Yrotation
						End Site
						{
							OFFSET	 0.000000	 0.077941	 0.001747
						}
					}
				}
				JOINT RightShoulder
				{
					OFFSET	-0.080363	 0.159706	-0.000306
					CHANNELS 3 Zrotation Xrotation Yrotation
					JOINT RightArm
					{
						OFFSET	 0.000000	 0.164196	 0.000000
						CHANNELS 3 Zrotation Xrotation Yrotation
						JOINT RightForeArm
						{
							OFFSET	 0.000000	 0.365611	 0.000000
							CHANNELS 3 Zrotation Xrotation Yrotation
							JOINT RightHand
							{
								OFFSET	 0.000000	 0.360648	 0.000000
								CHANNELS 3 Zrotation Xrotation Yrotation
								JOINT RightHandIndex1
								{
									OFFSET	 0.000000	 0.069977	 0.000000
									CHANNELS 3 Zrotation Xrotation Yrotation
									JOINT RightHandIndex2
									{
										OFFSET	 0.000000	 0.052305	 0.000000
										CHANNELS 3 Zrotation Xrotation Yrotation
										JOINT RightHandIndex3
										{
											OFFSET	 0.009002	 0.042196	 0.000782
											CHANNELS 3 Zrotation Xrotation Yrotation
											End Site
											{
												OFFSET	 0.009002	 0.042196	 0.000782
											}
										}
									}
								}
							}
						}
					}
				}
			}
		}
	}
}
MOTION
Frames:    4
Frame Time: 0.03333334
 0.001431	 1.255886	-0.176318	 0.015626	-0.011747	 179.999900	-179.735300	 2.295533	-0.094634	 4.174006	-18.961310	 0.439890	-7.531840	 77.825260	 7.001291	 1.292262	 28.425850	-2.713146	 178.321700	-13.589040	 0.391893	-1.015493	-4.926928	 0.222549	 7.502846	 79.711130	-8.534065	-1.288183	 28.361890	 2.710176	-0.089620	 2.704450	-0.000518	 0.008151	 3.690148	-0.000994	-0.003846	-4.717754	-0.004159	-101.478000	 1.740666	 90.353390	-0.767672	 63.990900	 3.672309	 5.265759	 10.871000	 0.953726	 10.281280	-13.643480	 0.136467	-6.580301	 5.266122	 0.000000	 0.000000	 0.000000	 0.000000	 0.000000	 0.000000	 0.000000	 0.089846	-3.783161	 0.005928	 0.000015	 1.263154	-0.001370	 101.796200	-0.213311	-89.955450	-2.224368	 63.413330	-6.284519	-7.893023	 11.897160	 2.088031	-13.961060	-15.110820	 1.408767	 15.208500	 5.323790	 0.000000	 0.000000	 0.000000	 0.000000	 0.000000	 0.000000	 0.000000
 0.001422	 1.261041	-0.118608	 0.015593	-0.011744	 179.999900	-179.515000	 1.928222	-0.077837	 3.646996	-16.712710	 0.278427	-6.273448	 75.719950	 5.986563	 1.292262	 28.425850	-2.713146	 178.328100	-10.701350	 0.262221	-1.025564	-4.975552	 0.221687	 5.422756	 76.666890	-6.433133	-1.288183	 28.361890	 2.710176	-0.089620	 2.704450	-0.000518	 0.008097	 3.690146	-0.000993	-0.003827	-4.717752	-0.004157	-101.478000	 1.740674	 90.353390	-1.522022	 63.083080	 4.338039	 6.104595	 12.545600	 0.783425	 9.884523	-15.159390	 0.286140	-6.580301	 5.266122	 0.000000	 0.000000	 0.000000	 0.000000	 0.000000	 0.000000	 0.000000	 0.089846	-3.783161	 0.005928	 0.000015	 1.263154	-0.001370	 101.796200	-0.213313	-89.955440	-0.366106	 61.061680	-7.891852	-10.937870	 16.230560	 2.750822	-13.321730	-17.948290	 0.091762	 15.208500	 5.323790	 0.000000	 0.000000	 0.000000	 0.000000	 0.000000	 0.000000	 0.000000
 0.001415	 1.265999	-0.063117	 0.015593	-0.011744	 179.999900	-179.379700	 1.929663	-0.063857	 3.329450	-15.330620	 0.190782	-5.565686	 74.117710	 5.430004	 1.292262	 28.425850	-2.713146	 178.334100	-7.878135	 0.166173	-1.032958	-5.011240	 0.221043	 4.251064	 73.669950	-5.243815	-1.288183	 28.361890	 2.710176	-0.089620	 2.704450	-0.000518	 0.008086	 3.689974	-0.000993	-0.003823	-4.717647	-0.004157	-101.478000	 1.740672	 90.353390	-2.134284	 62.281040	 4.868781	 6.831513	 13.977420	 0.616661	 9.548383	-16.866320	 0.411531	-6.580301	 5.266122	 0.000000	 0.000000	 0.000000	 0.000000	 0.000000	 0.000000	 0.000000	 0.089846	-3.783161	 0.005928	 0.000015	 1.263154	-0.001370	 101.796200	-0.213318	-89.955450	 1.060593	 58.568490	-9.049676	-14.298090	 20.751470	 3.706109	-12.914260	-21.190460	-1.625664	 15.208500	 5.323790	 0.000000	 0.000000	 0.000000	 0.000000	 0.000000	 0.000000	 0.000000
 0.001406	 1.271250	-0.004340	 0.015632	-0.011749	 179.999900	-179.009000	 0.826892	-0.059793	 2.497332	-11.622440	-0.003243	-4.403294	 71.281780	 4.666839	 1.292262	 28.425850	-2.713146	 178.814200	-2.529577	 0.127615	-2.029439	-9.773228	 0.092722	 4.508116	 72.849510	-5.006863	-1.288183	 28.361890	 2.710176	-0.089620	 2.704450	-0.000518	 0.008190	 3.690318	-0.000995	-0.003880	-4.717898	-0.004214	-101.478000	 1.740679	 90.353390	-2.699593	 61.475670	 5.347931	 7.542721	 15.359140	 0.436535	 9.230144	-18.960340	 0.531597	-6.580301	 5.266122	 0.000000	 0.000000	 0.000000	 0.000000	 0.000000	 0.000000	 0.000000	 0.089846	-3.783161	 0.005928	 0.000015	 1.263154	-0.001370	 101.796200	-0.213313	-89.955460	 2.165832	 55.699970	-9.828005	-18.424980	 25.869110	 5.184134	-12.730630	-25.147320	-3.981928	 15.208500	 5.323790	 0.000000	 0.000000	 0.000000	 0.000000	 0.000000	 0.000000	 0.000000
